<svg xmlns="http://www.w3.org/2000/svg" xmlns:xlink="http://www.w3.org/1999/xlink" width="1080" zoomAndPan="magnify" viewBox="0 0 810 809.999993" height="1080" preserveAspectRatio="xMidYMid meet" version="1.0"><defs><clipPath id="6dc88ddccd"><path d="M 95 113 L 713 113 L 713 700.46875 L 95 700.46875 Z M 95 113 " clip-rule="nonzero"/></clipPath></defs><path fill="#43b02a" d="M 311.375 546.105469 C 310.699219 546.105469 310.03125 546.171875 309.367188 546.300781 C 308.707031 546.433594 308.0625 546.628906 307.4375 546.886719 C 306.8125 547.148438 306.21875 547.464844 305.65625 547.839844 C 305.09375 548.214844 304.574219 548.640625 304.097656 549.121094 C 303.617188 549.597656 303.191406 550.117188 302.816406 550.679688 C 302.441406 551.242188 302.125 551.835938 301.867188 552.460938 C 301.605469 553.085938 301.410156 553.726562 301.28125 554.390625 C 301.148438 555.054688 301.082031 555.722656 301.082031 556.398438 L 301.082031 607.875 C 301.082031 608.550781 301.148438 609.21875 301.28125 609.882812 C 301.410156 610.546875 301.605469 611.191406 301.863281 611.8125 C 302.125 612.4375 302.441406 613.03125 302.816406 613.59375 C 303.191406 614.15625 303.617188 614.675781 304.097656 615.152344 C 304.574219 615.632812 305.09375 616.058594 305.65625 616.433594 C 306.21875 616.808594 306.8125 617.128906 307.4375 617.386719 C 308.0625 617.644531 308.707031 617.839844 309.367188 617.972656 C 310.03125 618.101562 310.699219 618.167969 311.375 618.167969 C 312.050781 618.167969 312.722656 618.101562 313.386719 617.972656 C 314.046875 617.839844 314.691406 617.644531 315.316406 617.386719 C 315.941406 617.128906 316.535156 616.808594 317.097656 616.433594 C 317.65625 616.058594 318.179688 615.632812 318.65625 615.152344 C 319.132812 614.675781 319.5625 614.15625 319.9375 613.59375 C 320.3125 613.03125 320.628906 612.4375 320.886719 611.8125 C 321.148438 611.191406 321.34375 610.546875 321.472656 609.882812 C 321.605469 609.21875 321.671875 608.550781 321.671875 607.875 L 321.671875 556.398438 C 321.671875 555.722656 321.605469 555.054688 321.472656 554.390625 C 321.34375 553.726562 321.148438 553.085938 320.886719 552.460938 C 320.628906 551.835938 320.3125 551.242188 319.9375 550.679688 C 319.5625 550.117188 319.132812 549.597656 318.65625 549.121094 C 318.179688 548.640625 317.65625 548.214844 317.097656 547.839844 C 316.535156 547.464844 315.941406 547.148438 315.316406 546.886719 C 314.691406 546.628906 314.046875 546.433594 313.386719 546.300781 C 312.722656 546.171875 312.050781 546.105469 311.375 546.105469 Z M 311.375 546.105469 " fill-opacity="1" fill-rule="nonzero"/><path fill="#43b02a" d="M 311.375 443.15625 C 310.699219 443.15625 310.03125 443.222656 309.367188 443.351562 C 308.707031 443.484375 308.0625 443.679688 307.4375 443.9375 C 306.8125 444.199219 306.21875 444.515625 305.65625 444.890625 C 305.09375 445.265625 304.574219 445.691406 304.097656 446.171875 C 303.617188 446.648438 303.191406 447.167969 302.816406 447.730469 C 302.441406 448.292969 302.125 448.886719 301.867188 449.511719 C 301.605469 450.136719 301.410156 450.777344 301.28125 451.441406 C 301.148438 452.105469 301.082031 452.773438 301.082031 453.449219 L 301.082031 504.925781 C 301.082031 505.601562 301.148438 506.269531 301.28125 506.933594 C 301.410156 507.597656 301.605469 508.238281 301.863281 508.863281 C 302.125 509.488281 302.441406 510.082031 302.816406 510.644531 C 303.191406 511.207031 303.617188 511.726562 304.097656 512.203125 C 304.574219 512.683594 305.09375 513.109375 305.65625 513.484375 C 306.21875 513.859375 306.8125 514.175781 307.4375 514.4375 C 308.0625 514.695312 308.707031 514.890625 309.367188 515.023438 C 310.03125 515.152344 310.699219 515.21875 311.375 515.21875 C 312.050781 515.21875 312.722656 515.152344 313.386719 515.023438 C 314.046875 514.890625 314.691406 514.695312 315.316406 514.4375 C 315.941406 514.175781 316.535156 513.859375 317.097656 513.484375 C 317.65625 513.109375 318.179688 512.683594 318.65625 512.203125 C 319.132812 511.726562 319.5625 511.207031 319.9375 510.644531 C 320.3125 510.082031 320.628906 509.488281 320.886719 508.863281 C 321.148438 508.238281 321.34375 507.597656 321.472656 506.933594 C 321.605469 506.269531 321.671875 505.601562 321.671875 504.925781 L 321.671875 453.449219 C 321.671875 452.773438 321.605469 452.105469 321.472656 451.441406 C 321.34375 450.777344 321.148438 450.136719 320.886719 449.511719 C 320.628906 448.886719 320.3125 448.292969 319.9375 447.730469 C 319.5625 447.167969 319.132812 446.648438 318.65625 446.171875 C 318.179688 445.691406 317.65625 445.265625 317.097656 444.890625 C 316.535156 444.515625 315.941406 444.199219 315.316406 443.9375 C 314.691406 443.679688 314.046875 443.484375 313.386719 443.351562 C 312.722656 443.222656 312.050781 443.15625 311.375 443.15625 Z M 311.375 443.15625 " fill-opacity="1" fill-rule="nonzero"/><g clip-path="url(#6dc88ddccd)"><path fill="#43b02a" d="M 702.585938 463.746094 C 703.261719 463.746094 703.929688 463.679688 704.59375 463.546875 C 705.257812 463.414062 705.898438 463.21875 706.523438 462.960938 C 707.148438 462.703125 707.742188 462.386719 708.304688 462.011719 C 708.867188 461.632812 709.386719 461.207031 709.863281 460.730469 C 710.34375 460.253906 710.769531 459.730469 711.144531 459.167969 C 711.519531 458.609375 711.835938 458.015625 712.097656 457.390625 C 712.355469 456.765625 712.550781 456.121094 712.679688 455.457031 C 712.8125 454.796875 712.878906 454.125 712.878906 453.449219 L 712.878906 391.679688 C 712.867188 388.339844 712.324219 385.089844 711.25 381.929688 C 710.171875 378.765625 708.621094 375.859375 706.59375 373.207031 C 707.542969 371.761719 708.390625 370.261719 709.136719 368.699219 C 709.878906 367.136719 710.511719 365.535156 711.035156 363.886719 C 711.554688 362.238281 711.960938 360.558594 712.25 358.855469 C 712.539062 357.152344 712.710938 355.433594 712.761719 353.707031 C 712.8125 351.976562 712.742188 350.253906 712.554688 348.535156 C 712.367188 346.816406 712.058594 345.117188 711.636719 343.441406 C 711.214844 341.765625 710.675781 340.125 710.023438 338.523438 C 709.375 336.921875 708.617188 335.375 707.75 333.878906 L 684.871094 294.253906 C 684.535156 293.671875 684.140625 293.125 683.695312 292.613281 C 683.25 292.105469 682.761719 291.644531 682.222656 291.234375 C 681.6875 290.824219 681.117188 290.46875 680.511719 290.167969 C 679.902344 289.871094 679.273438 289.632812 678.621094 289.457031 C 677.96875 289.28125 677.304688 289.171875 676.628906 289.128906 C 675.953125 289.082031 675.28125 289.105469 674.613281 289.195312 C 673.941406 289.28125 673.285156 289.433594 672.648438 289.652344 C 672.007812 289.871094 671.394531 290.148438 670.808594 290.484375 C 643.972656 306.722656 606.226562 296.617188 591.117188 269.132812 C 574.875 242.296875 584.988281 204.558594 612.472656 189.445312 C 613.054688 189.105469 613.597656 188.710938 614.101562 188.265625 C 614.609375 187.816406 615.066406 187.324219 615.472656 186.789062 C 615.882812 186.25 616.238281 185.679688 616.535156 185.074219 C 616.832031 184.46875 617.066406 183.839844 617.242188 183.1875 C 617.417969 182.535156 617.527344 181.875 617.574219 181.199219 C 617.617188 180.527344 617.597656 179.855469 617.511719 179.1875 C 617.425781 178.515625 617.277344 177.863281 617.0625 177.222656 C 616.847656 176.582031 616.574219 175.96875 616.242188 175.382812 L 588.785156 127.839844 C 581.378906 114.351562 562.882812 109.421875 549.722656 117.363281 L 128.085938 360.796875 L 126.066406 360.796875 C 125.054688 360.796875 124.046875 360.847656 123.042969 360.949219 C 122.035156 361.046875 121.035156 361.195312 120.042969 361.394531 C 119.054688 361.59375 118.074219 361.839844 117.105469 362.132812 C 116.136719 362.425781 115.1875 362.769531 114.253906 363.15625 C 113.320312 363.542969 112.40625 363.976562 111.515625 364.453125 C 110.625 364.929688 109.757812 365.449219 108.917969 366.011719 C 108.078125 366.574219 107.265625 367.175781 106.484375 367.816406 C 105.703125 368.457031 104.953125 369.136719 104.238281 369.851562 C 103.523438 370.566406 102.84375 371.316406 102.203125 372.097656 C 101.5625 372.878906 100.960938 373.691406 100.398438 374.53125 C 99.835938 375.371094 99.316406 376.238281 98.839844 377.128906 C 98.363281 378.019531 97.929688 378.933594 97.542969 379.867188 C 97.15625 380.800781 96.816406 381.75 96.519531 382.71875 C 96.226562 383.6875 95.980469 384.667969 95.78125 385.65625 C 95.582031 386.648438 95.433594 387.648438 95.335938 388.65625 C 95.234375 389.660156 95.183594 390.667969 95.183594 391.679688 L 95.183594 453.449219 C 95.183594 454.125 95.25 454.796875 95.378906 455.457031 C 95.511719 456.121094 95.707031 456.765625 95.964844 457.390625 C 96.226562 458.015625 96.542969 458.609375 96.917969 459.167969 C 97.292969 459.730469 97.71875 460.253906 98.199219 460.730469 C 98.675781 461.207031 99.195312 461.632812 99.757812 462.011719 C 100.320312 462.386719 100.914062 462.703125 101.539062 462.960938 C 102.164062 463.21875 102.804688 463.414062 103.46875 463.546875 C 104.132812 463.679688 104.800781 463.746094 105.476562 463.746094 C 106.574219 463.746094 107.667969 463.773438 108.761719 463.824219 C 109.855469 463.878906 110.945312 463.960938 112.035156 464.066406 C 113.125 464.175781 114.214844 464.308594 115.296875 464.46875 C 116.378906 464.628906 117.457031 464.816406 118.53125 465.03125 C 119.605469 465.246094 120.675781 465.484375 121.738281 465.75 C 122.800781 466.015625 123.855469 466.308594 124.902344 466.625 C 125.949219 466.945312 126.988281 467.289062 128.019531 467.65625 C 129.050781 468.027344 130.074219 468.421875 131.085938 468.839844 C 132.097656 469.257812 133.097656 469.703125 134.089844 470.171875 C 135.078125 470.636719 136.054688 471.128906 137.023438 471.648438 C 137.988281 472.164062 138.941406 472.703125 139.878906 473.265625 C 140.820312 473.828125 141.746094 474.414062 142.65625 475.023438 C 143.566406 475.632812 144.460938 476.261719 145.339844 476.914062 C 146.21875 477.566406 147.082031 478.238281 147.929688 478.933594 C 148.777344 479.628906 149.605469 480.34375 150.417969 481.078125 C 151.226562 481.816406 152.019531 482.570312 152.796875 483.34375 C 153.570312 484.121094 154.324219 484.914062 155.058594 485.722656 C 155.796875 486.535156 156.511719 487.363281 157.207031 488.210938 C 157.898438 489.058594 158.574219 489.921875 159.226562 490.800781 C 159.878906 491.679688 160.507812 492.574219 161.117188 493.484375 C 161.726562 494.394531 162.3125 495.320312 162.875 496.261719 C 163.4375 497.199219 163.976562 498.152344 164.492188 499.117188 C 165.007812 500.082031 165.5 501.0625 165.96875 502.050781 C 166.4375 503.042969 166.882812 504.042969 167.300781 505.054688 C 167.71875 506.066406 168.113281 507.085938 168.484375 508.117188 C 168.851562 509.148438 169.195312 510.1875 169.511719 511.238281 C 169.832031 512.285156 170.125 513.339844 170.390625 514.402344 C 170.65625 515.464844 170.894531 516.535156 171.109375 517.609375 C 171.324219 518.679688 171.511719 519.761719 171.671875 520.84375 C 171.832031 521.925781 171.964844 523.011719 172.074219 524.101562 C 172.179688 525.191406 172.261719 526.285156 172.3125 527.378906 C 172.367188 528.472656 172.394531 529.566406 172.394531 530.664062 C 172.394531 531.757812 172.367188 532.851562 172.3125 533.945312 C 172.261719 535.039062 172.179688 536.132812 172.074219 537.222656 C 171.964844 538.3125 171.832031 539.398438 171.671875 540.480469 C 171.511719 541.566406 171.324219 542.644531 171.109375 543.71875 C 170.894531 544.792969 170.65625 545.859375 170.390625 546.921875 C 170.125 547.984375 169.832031 549.039062 169.511719 550.085938 C 169.195312 551.136719 168.851562 552.175781 168.484375 553.207031 C 168.113281 554.238281 167.71875 555.257812 167.300781 556.269531 C 166.882812 557.28125 166.4375 558.28125 165.96875 559.273438 C 165.5 560.261719 165.007812 561.242188 164.492188 562.207031 C 163.976562 563.171875 163.4375 564.125 162.875 565.066406 C 162.3125 566.003906 161.726562 566.929688 161.117188 567.839844 C 160.507812 568.75 159.878906 569.644531 159.226562 570.523438 C 158.574219 571.40625 157.898438 572.269531 157.207031 573.113281 C 156.511719 573.960938 155.796875 574.789062 155.058594 575.601562 C 154.324219 576.414062 153.570312 577.207031 152.796875 577.980469 C 152.019531 578.753906 151.226562 579.507812 150.417969 580.246094 C 149.605469 580.980469 148.777344 581.695312 147.929688 582.390625 C 147.082031 583.085938 146.21875 583.757812 145.339844 584.410156 C 144.460938 585.0625 143.566406 585.695312 142.65625 586.300781 C 141.746094 586.910156 140.820312 587.496094 139.878906 588.058594 C 138.941406 588.621094 137.988281 589.160156 137.023438 589.679688 C 136.054688 590.195312 135.078125 590.6875 134.089844 591.15625 C 133.097656 591.621094 132.097656 592.066406 131.085938 592.484375 C 130.074219 592.90625 129.050781 593.300781 128.019531 593.667969 C 126.988281 594.035156 125.949219 594.378906 124.902344 594.699219 C 123.855469 595.015625 122.800781 595.308594 121.738281 595.574219 C 120.675781 595.839844 119.605469 596.082031 118.53125 596.292969 C 117.457031 596.507812 116.378906 596.695312 115.296875 596.855469 C 114.214844 597.015625 113.125 597.148438 112.035156 597.257812 C 110.945312 597.363281 109.855469 597.445312 108.761719 597.5 C 107.667969 597.550781 106.574219 597.578125 105.476562 597.578125 C 104.800781 597.578125 104.132812 597.644531 103.46875 597.777344 C 102.804688 597.910156 102.164062 598.105469 101.539062 598.363281 C 100.914062 598.621094 100.320312 598.9375 99.757812 599.316406 C 99.195312 599.691406 98.675781 600.117188 98.199219 600.59375 C 97.71875 601.074219 97.292969 601.59375 96.917969 602.15625 C 96.542969 602.71875 96.226562 603.308594 95.964844 603.933594 C 95.707031 604.558594 95.511719 605.203125 95.378906 605.867188 C 95.25 606.527344 95.183594 607.199219 95.183594 607.875 L 95.183594 659.347656 C 95.183594 660.699219 95.25 662.042969 95.386719 663.382812 C 95.519531 664.726562 95.71875 666.058594 95.980469 667.378906 C 96.246094 668.703125 96.574219 670.007812 96.964844 671.296875 C 97.359375 672.589844 97.8125 673.855469 98.328125 675.101562 C 98.84375 676.347656 99.421875 677.5625 100.058594 678.753906 C 100.695312 679.941406 101.386719 681.097656 102.136719 682.21875 C 102.886719 683.339844 103.6875 684.417969 104.542969 685.460938 C 105.398438 686.503906 106.304688 687.5 107.257812 688.453125 C 108.210938 689.410156 109.207031 690.3125 110.25 691.167969 C 111.292969 692.023438 112.375 692.824219 113.496094 693.574219 C 114.617188 694.324219 115.769531 695.019531 116.960938 695.652344 C 118.148438 696.289062 119.363281 696.867188 120.609375 697.382812 C 121.855469 697.898438 123.125 698.355469 124.414062 698.746094 C 125.703125 699.136719 127.007812 699.464844 128.332031 699.730469 C 129.652344 699.996094 130.984375 700.191406 132.328125 700.328125 C 133.667969 700.460938 135.015625 700.527344 136.363281 700.527344 L 671.699219 700.527344 C 673.046875 700.527344 674.394531 700.460938 675.734375 700.328125 C 677.078125 700.191406 678.40625 699.996094 679.730469 699.730469 C 681.050781 699.464844 682.359375 699.136719 683.648438 698.746094 C 684.9375 698.355469 686.207031 697.898438 687.453125 697.382812 C 688.695312 696.867188 689.914062 696.289062 691.101562 695.652344 C 692.292969 695.015625 693.445312 694.324219 694.566406 693.574219 C 695.6875 692.824219 696.769531 692.023438 697.8125 691.167969 C 698.855469 690.3125 699.851562 689.410156 700.804688 688.453125 C 701.757812 687.5 702.664062 686.503906 703.519531 685.460938 C 704.375 684.417969 705.175781 683.339844 705.925781 682.21875 C 706.675781 681.097656 707.367188 679.941406 708.003906 678.753906 C 708.640625 677.5625 709.214844 676.347656 709.734375 675.101562 C 710.25 673.855469 710.703125 672.589844 711.097656 671.296875 C 711.488281 670.007812 711.816406 668.703125 712.082031 667.378906 C 712.34375 666.058594 712.542969 664.726562 712.675781 663.382812 C 712.808594 662.042969 712.878906 660.699219 712.878906 659.347656 L 712.878906 607.875 C 712.878906 607.199219 712.8125 606.527344 712.679688 605.867188 C 712.550781 605.203125 712.355469 604.558594 712.097656 603.933594 C 711.835938 603.308594 711.519531 602.71875 711.144531 602.15625 C 710.769531 601.59375 710.34375 601.074219 709.863281 600.59375 C 709.386719 600.117188 708.867188 599.691406 708.304688 599.316406 C 707.742188 598.9375 707.148438 598.621094 706.523438 598.363281 C 705.898438 598.105469 705.257812 597.910156 704.59375 597.777344 C 703.929688 597.644531 703.261719 597.578125 702.585938 597.578125 C 701.488281 597.578125 700.394531 597.550781 699.300781 597.5 C 698.207031 597.445312 697.117188 597.363281 696.027344 597.257812 C 694.9375 597.148438 693.847656 597.015625 692.765625 596.855469 C 691.683594 596.695312 690.605469 596.507812 689.53125 596.292969 C 688.457031 596.082031 687.386719 595.839844 686.324219 595.574219 C 685.261719 595.308594 684.207031 595.015625 683.160156 594.699219 C 682.113281 594.378906 681.070312 594.035156 680.039062 593.667969 C 679.007812 593.300781 677.988281 592.90625 676.976562 592.484375 C 675.964844 592.066406 674.964844 591.621094 673.972656 591.15625 C 672.984375 590.6875 672.003906 590.195312 671.039062 589.679688 C 670.074219 589.160156 669.121094 588.621094 668.183594 588.058594 C 667.242188 587.496094 666.316406 586.910156 665.40625 586.300781 C 664.496094 585.695312 663.601562 585.0625 662.722656 584.410156 C 661.84375 583.757812 660.980469 583.085938 660.132812 582.390625 C 659.285156 581.695312 658.457031 580.980469 657.644531 580.246094 C 656.835938 579.507812 656.042969 578.753906 655.265625 577.980469 C 654.492188 577.207031 653.738281 576.414062 653.003906 575.601562 C 652.265625 574.789062 651.550781 573.960938 650.855469 573.113281 C 650.164062 572.269531 649.488281 571.40625 648.835938 570.523438 C 648.183594 569.644531 647.554688 568.75 646.945312 567.839844 C 646.335938 566.929688 645.75 566.003906 645.1875 565.066406 C 644.625 564.125 644.085938 563.171875 643.570312 562.207031 C 643.050781 561.242188 642.558594 560.261719 642.09375 559.273438 C 641.625 558.28125 641.179688 557.28125 640.761719 556.269531 C 640.34375 555.257812 639.949219 554.238281 639.578125 553.207031 C 639.210938 552.175781 638.867188 551.136719 638.546875 550.085938 C 638.230469 549.039062 637.9375 547.984375 637.671875 546.921875 C 637.40625 545.859375 637.167969 544.792969 636.953125 543.71875 C 636.738281 542.644531 636.550781 541.566406 636.390625 540.480469 C 636.230469 539.398438 636.097656 538.3125 635.988281 537.222656 C 635.882812 536.132812 635.800781 535.039062 635.746094 533.945312 C 635.695312 532.851562 635.667969 531.757812 635.667969 530.664062 C 635.667969 529.566406 635.695312 528.472656 635.746094 527.378906 C 635.800781 526.285156 635.882812 525.191406 635.988281 524.101562 C 636.097656 523.011719 636.230469 521.925781 636.390625 520.84375 C 636.550781 519.761719 636.738281 518.679688 636.953125 517.609375 C 637.167969 516.535156 637.40625 515.464844 637.671875 514.402344 C 637.9375 513.339844 638.230469 512.285156 638.550781 511.238281 C 638.867188 510.1875 639.210938 509.148438 639.578125 508.117188 C 639.949219 507.085938 640.34375 506.066406 640.761719 505.054688 C 641.179688 504.042969 641.625 503.042969 642.09375 502.050781 C 642.558594 501.0625 643.050781 500.082031 643.570312 499.117188 C 644.085938 498.152344 644.625 497.199219 645.1875 496.261719 C 645.75 495.320312 646.335938 494.394531 646.945312 493.484375 C 647.554688 492.574219 648.183594 491.679688 648.835938 490.800781 C 649.488281 489.921875 650.164062 489.058594 650.855469 488.210938 C 651.550781 487.363281 652.265625 486.535156 653.003906 485.722656 C 653.738281 484.914062 654.492188 484.121094 655.265625 483.34375 C 656.042969 482.570312 656.835938 481.816406 657.644531 481.078125 C 658.457031 480.34375 659.285156 479.628906 660.132812 478.933594 C 660.980469 478.238281 661.84375 477.566406 662.722656 476.914062 C 663.601562 476.261719 664.496094 475.632812 665.40625 475.023438 C 666.316406 474.414062 667.242188 473.828125 668.183594 473.265625 C 669.121094 472.703125 670.074219 472.164062 671.039062 471.648438 C 672.003906 471.128906 672.984375 470.636719 673.972656 470.171875 C 674.964844 469.703125 675.964844 469.257812 676.976562 468.839844 C 677.988281 468.421875 679.007812 468.027344 680.039062 467.65625 C 681.070312 467.289062 682.113281 466.945312 683.160156 466.625 C 684.207031 466.308594 685.261719 466.015625 686.324219 465.75 C 687.386719 465.484375 688.457031 465.246094 689.53125 465.03125 C 690.605469 464.816406 691.683594 464.628906 692.765625 464.46875 C 693.847656 464.308594 694.9375 464.175781 696.027344 464.066406 C 697.117188 463.960938 698.207031 463.878906 699.300781 463.824219 C 700.394531 463.773438 701.488281 463.746094 702.585938 463.746094 Z M 560.019531 135.195312 C 560.472656 134.933594 560.953125 134.71875 561.449219 134.550781 C 561.945312 134.386719 562.457031 134.265625 562.976562 134.199219 C 563.5 134.132812 564.019531 134.113281 564.546875 134.148438 C 565.070312 134.183594 565.585938 134.269531 566.09375 134.40625 C 566.601562 134.542969 567.089844 134.726562 567.5625 134.957031 C 568.03125 135.191406 568.476562 135.464844 568.894531 135.785156 C 569.3125 136.105469 569.691406 136.460938 570.039062 136.855469 C 570.386719 137.25 570.691406 137.671875 570.957031 138.128906 L 593.597656 177.332031 C 562.660156 200.144531 553.335938 246.375 573.289062 279.425781 C 591.9375 313.230469 636.648438 328.292969 671.863281 312.894531 L 689.917969 344.164062 C 690.695312 345.515625 691.277344 346.945312 691.65625 348.453125 C 692.039062 349.964844 692.210938 351.496094 692.167969 353.054688 C 692.128906 354.609375 691.875 356.132812 691.414062 357.617188 C 690.953125 359.105469 690.296875 360.5 689.449219 361.808594 C 687.003906 361.164062 684.519531 360.824219 681.996094 360.796875 L 169.273438 360.796875 Z M 615.078125 530.664062 C 615.082031 533.3125 615.203125 535.957031 615.445312 538.59375 C 615.691406 541.234375 616.050781 543.855469 616.535156 546.460938 C 617.015625 549.066406 617.613281 551.644531 618.328125 554.195312 C 619.042969 556.75 619.871094 559.261719 620.8125 561.738281 C 621.757812 564.214844 622.808594 566.644531 623.972656 569.023438 C 625.136719 571.40625 626.40625 573.726562 627.777344 575.992188 C 629.152344 578.257812 630.625 580.457031 632.199219 582.589844 C 633.773438 584.722656 635.441406 586.777344 637.199219 588.757812 C 638.960938 590.738281 640.804688 592.636719 642.738281 594.449219 C 644.671875 596.265625 646.679688 597.984375 648.769531 599.617188 C 650.855469 601.25 653.015625 602.78125 655.242188 604.21875 C 657.46875 605.652344 659.757812 606.984375 662.105469 608.210938 C 664.453125 609.441406 666.851562 610.558594 669.300781 611.570312 C 671.75 612.578125 674.242188 613.476562 676.773438 614.261719 C 679.304688 615.046875 681.863281 615.714844 684.457031 616.265625 C 687.046875 616.816406 689.660156 617.25 692.289062 617.566406 L 692.289062 659.347656 C 692.289062 660.023438 692.253906 660.695312 692.1875 661.367188 C 692.121094 662.039062 692.023438 662.703125 691.890625 663.363281 C 691.757812 664.027344 691.59375 664.679688 691.398438 665.324219 C 691.203125 665.96875 690.972656 666.601562 690.714844 667.226562 C 690.457031 667.847656 690.167969 668.457031 689.851562 669.050781 C 689.53125 669.644531 689.1875 670.222656 688.8125 670.78125 C 688.4375 671.34375 688.035156 671.882812 687.609375 672.40625 C 687.179688 672.925781 686.726562 673.425781 686.25 673.902344 C 685.773438 674.378906 685.277344 674.832031 684.753906 675.257812 C 684.234375 675.6875 683.695312 676.085938 683.132812 676.460938 C 682.574219 676.835938 681.996094 677.183594 681.402344 677.5 C 680.804688 677.820312 680.199219 678.105469 679.574219 678.367188 C 678.953125 678.625 678.320312 678.851562 677.675781 679.046875 C 677.027344 679.242188 676.375 679.40625 675.714844 679.539062 C 675.054688 679.671875 674.386719 679.769531 673.71875 679.835938 C 673.046875 679.90625 672.375 679.9375 671.699219 679.9375 L 321.671875 679.9375 L 321.671875 659.347656 C 321.671875 658.671875 321.605469 658.003906 321.472656 657.339844 C 321.34375 656.679688 321.148438 656.035156 320.886719 655.410156 C 320.628906 654.785156 320.3125 654.191406 319.9375 653.628906 C 319.5625 653.066406 319.132812 652.546875 318.65625 652.070312 C 318.179688 651.589844 317.65625 651.164062 317.097656 650.789062 C 316.535156 650.414062 315.941406 650.097656 315.316406 649.839844 C 314.691406 649.578125 314.046875 649.382812 313.386719 649.253906 C 312.722656 649.121094 312.050781 649.054688 311.375 649.054688 C 310.699219 649.054688 310.03125 649.121094 309.367188 649.253906 C 308.707031 649.382812 308.0625 649.578125 307.4375 649.839844 C 306.8125 650.097656 306.21875 650.414062 305.65625 650.789062 C 305.09375 651.164062 304.574219 651.589844 304.097656 652.070312 C 303.617188 652.546875 303.191406 653.066406 302.816406 653.628906 C 302.441406 654.191406 302.125 654.785156 301.863281 655.410156 C 301.605469 656.035156 301.410156 656.679688 301.28125 657.339844 C 301.148438 658.003906 301.082031 658.671875 301.082031 659.347656 L 301.082031 679.9375 L 136.363281 679.9375 C 135.6875 679.9375 135.015625 679.90625 134.34375 679.835938 C 133.675781 679.769531 133.007812 679.671875 132.347656 679.539062 C 131.6875 679.40625 131.035156 679.242188 130.386719 679.046875 C 129.742188 678.851562 129.109375 678.625 128.488281 678.367188 C 127.863281 678.105469 127.253906 677.820312 126.660156 677.5 C 126.066406 677.183594 125.488281 676.835938 124.929688 676.460938 C 124.367188 676.085938 123.828125 675.6875 123.308594 675.257812 C 122.785156 674.832031 122.285156 674.378906 121.808594 673.902344 C 121.332031 673.425781 120.882812 672.925781 120.453125 672.40625 C 120.027344 671.882812 119.625 671.34375 119.25 670.78125 C 118.875 670.222656 118.527344 669.644531 118.210938 669.050781 C 117.894531 668.457031 117.605469 667.847656 117.347656 667.226562 C 117.089844 666.601562 116.859375 665.96875 116.664062 665.324219 C 116.46875 664.679688 116.304688 664.027344 116.171875 663.363281 C 116.039062 662.703125 115.941406 662.039062 115.875 661.367188 C 115.808594 660.695312 115.773438 660.023438 115.773438 659.347656 L 115.773438 617.566406 C 118.40625 617.253906 121.019531 616.824219 123.613281 616.277344 C 126.207031 615.730469 128.769531 615.0625 131.304688 614.28125 C 133.835938 613.5 136.332031 612.605469 138.78125 611.597656 C 141.234375 610.589844 143.636719 609.472656 145.988281 608.246094 C 148.335938 607.019531 150.628906 605.691406 152.855469 604.257812 C 155.085938 602.820312 157.246094 601.289062 159.335938 599.660156 C 161.425781 598.027344 163.441406 596.304688 165.375 594.492188 C 167.308594 592.679688 169.15625 590.78125 170.917969 588.800781 C 172.679688 586.816406 174.347656 584.761719 175.921875 582.625 C 177.496094 580.492188 178.96875 578.292969 180.34375 576.027344 C 181.71875 573.757812 182.988281 571.433594 184.148438 569.050781 C 185.3125 566.667969 186.367188 564.238281 187.308594 561.761719 C 188.25 559.28125 189.078125 556.765625 189.792969 554.214844 C 190.503906 551.660156 191.101562 549.078125 191.578125 546.472656 C 192.058594 543.863281 192.417969 541.238281 192.660156 538.601562 C 192.898438 535.960938 193.019531 533.3125 193.019531 530.664062 C 193.019531 528.011719 192.898438 525.367188 192.660156 522.726562 C 192.417969 520.085938 192.058594 517.460938 191.578125 514.851562 C 191.101562 512.246094 190.503906 509.664062 189.792969 507.113281 C 189.078125 504.558594 188.25 502.042969 187.308594 499.5625 C 186.367188 497.085938 185.3125 494.65625 184.148438 492.273438 C 182.988281 489.890625 181.71875 487.566406 180.34375 485.296875 C 178.96875 483.03125 177.496094 480.832031 175.921875 478.699219 C 174.347656 476.566406 172.679688 474.507812 170.917969 472.527344 C 169.15625 470.542969 167.308594 468.648438 165.375 466.832031 C 163.441406 465.019531 161.425781 463.296875 159.335938 461.667969 C 157.246094 460.035156 155.085938 458.503906 152.855469 457.070312 C 150.628906 455.632812 148.335938 454.304688 145.988281 453.078125 C 143.636719 451.851562 141.234375 450.734375 138.78125 449.726562 C 136.332031 448.71875 133.835938 447.824219 131.304688 447.042969 C 128.769531 446.261719 126.207031 445.597656 123.613281 445.046875 C 121.019531 444.5 118.40625 444.070312 115.773438 443.757812 L 115.773438 391.679688 C 115.773438 391.003906 115.839844 390.335938 115.972656 389.671875 C 116.105469 389.011719 116.300781 388.367188 116.558594 387.742188 C 116.820312 387.117188 117.136719 386.527344 117.511719 385.964844 C 117.886719 385.402344 118.3125 384.882812 118.792969 384.40625 C 119.269531 383.925781 119.789062 383.5 120.351562 383.125 C 120.914062 382.75 121.507812 382.433594 122.128906 382.171875 C 122.753906 381.914062 123.398438 381.71875 124.058594 381.585938 C 124.722656 381.453125 125.390625 381.386719 126.066406 381.386719 L 301.082031 381.386719 L 301.082031 401.976562 C 301.082031 402.652344 301.148438 403.320312 301.28125 403.984375 C 301.410156 404.648438 301.605469 405.289062 301.863281 405.914062 C 302.125 406.539062 302.441406 407.132812 302.816406 407.695312 C 303.191406 408.257812 303.617188 408.777344 304.097656 409.253906 C 304.574219 409.734375 305.09375 410.160156 305.65625 410.535156 C 306.21875 410.910156 306.8125 411.226562 307.4375 411.488281 C 308.0625 411.746094 308.707031 411.941406 309.367188 412.074219 C 310.03125 412.203125 310.699219 412.269531 311.375 412.269531 C 312.050781 412.269531 312.722656 412.203125 313.386719 412.074219 C 314.046875 411.941406 314.691406 411.746094 315.316406 411.488281 C 315.941406 411.226562 316.535156 410.910156 317.097656 410.535156 C 317.65625 410.160156 318.179688 409.734375 318.65625 409.253906 C 319.132812 408.777344 319.5625 408.257812 319.9375 407.695312 C 320.3125 407.132812 320.628906 406.539062 320.886719 405.914062 C 321.148438 405.289062 321.34375 404.648438 321.472656 403.984375 C 321.605469 403.320312 321.671875 402.652344 321.671875 401.976562 L 321.671875 381.386719 L 681.996094 381.386719 C 682.671875 381.386719 683.339844 381.453125 684.003906 381.585938 C 684.664062 381.71875 685.308594 381.914062 685.933594 382.171875 C 686.554688 382.433594 687.148438 382.75 687.710938 383.125 C 688.273438 383.5 688.792969 383.925781 689.269531 384.40625 C 689.746094 384.882812 690.175781 385.402344 690.550781 385.964844 C 690.925781 386.527344 691.242188 387.117188 691.503906 387.742188 C 691.761719 388.367188 691.957031 389.011719 692.089844 389.671875 C 692.222656 390.335938 692.289062 391.003906 692.289062 391.679688 L 692.289062 443.757812 C 689.660156 444.074219 687.046875 444.507812 684.457031 445.058594 C 681.863281 445.613281 679.304688 446.28125 676.773438 447.0625 C 674.242188 447.847656 671.75 448.746094 669.300781 449.757812 C 666.851562 450.765625 664.453125 451.886719 662.105469 453.113281 C 659.757812 454.339844 657.46875 455.671875 655.242188 457.109375 C 653.015625 458.542969 650.855469 460.078125 648.769531 461.707031 C 646.679688 463.339844 644.667969 465.0625 642.738281 466.875 C 640.804688 468.6875 638.960938 470.585938 637.199219 472.566406 C 635.441406 474.546875 633.773438 476.601562 632.199219 478.734375 C 630.625 480.867188 629.152344 483.066406 627.777344 485.332031 C 626.40625 487.597656 625.136719 489.921875 623.972656 492.300781 C 622.808594 494.679688 621.757812 497.109375 620.8125 499.585938 C 619.871094 502.0625 619.042969 504.578125 618.328125 507.128906 C 617.613281 509.679688 617.015625 512.257812 616.535156 514.863281 C 616.050781 517.46875 615.691406 520.089844 615.445312 522.730469 C 615.203125 525.367188 615.082031 528.011719 615.078125 530.664062 Z M 615.078125 530.664062 " fill-opacity="1" fill-rule="nonzero"/></g><path fill="#43b02a" d="M 424.621094 515.21875 C 425.96875 515.21875 427.316406 515.152344 428.65625 515.023438 C 430 514.890625 431.332031 514.691406 432.65625 514.429688 C 433.976562 514.164062 435.285156 513.839844 436.574219 513.445312 C 437.867188 513.054688 439.132812 512.601562 440.378906 512.085938 C 441.625 511.570312 442.84375 510.992188 444.03125 510.359375 C 445.222656 509.722656 446.378906 509.027344 447.5 508.28125 C 448.621094 507.53125 449.703125 506.726562 450.746094 505.871094 C 451.789062 505.015625 452.785156 504.113281 453.738281 503.160156 C 454.691406 502.207031 455.597656 501.207031 456.453125 500.164062 C 457.308594 499.121094 458.113281 498.039062 458.859375 496.917969 C 459.609375 495.796875 460.300781 494.640625 460.9375 493.453125 C 461.574219 492.261719 462.148438 491.046875 462.667969 489.800781 C 463.183594 488.554688 463.636719 487.285156 464.027344 485.992188 C 464.417969 484.703125 464.746094 483.398438 465.007812 482.074219 C 465.273438 480.75 465.46875 479.417969 465.601562 478.078125 C 465.734375 476.734375 465.800781 475.390625 465.800781 474.039062 C 465.800781 472.691406 465.734375 471.347656 465.601562 470.003906 C 465.46875 468.660156 465.273438 467.328125 465.007812 466.007812 C 464.746094 464.683594 464.417969 463.378906 464.027344 462.085938 C 463.636719 460.796875 463.183594 459.527344 462.667969 458.28125 C 462.148438 457.035156 461.574219 455.816406 460.9375 454.628906 C 460.300781 453.4375 459.609375 452.285156 458.859375 451.160156 C 458.113281 450.039062 457.308594 448.957031 456.453125 447.917969 C 455.597656 446.875 454.691406 445.875 453.738281 444.921875 C 452.785156 443.96875 451.789062 443.0625 450.746094 442.207031 C 449.703125 441.351562 448.621094 440.550781 447.5 439.800781 C 446.378906 439.050781 445.222656 438.359375 444.03125 437.722656 C 442.84375 437.085938 441.625 436.511719 440.378906 435.996094 C 439.132812 435.480469 437.867188 435.023438 436.574219 434.632812 C 435.285156 434.242188 433.976562 433.914062 432.65625 433.652344 C 431.332031 433.386719 430 433.191406 428.65625 433.058594 C 427.316406 432.925781 425.96875 432.859375 424.621094 432.859375 C 423.273438 432.859375 421.925781 432.925781 420.585938 433.058594 C 419.242188 433.191406 417.910156 433.386719 416.585938 433.652344 C 415.265625 433.914062 413.957031 434.242188 412.667969 434.632812 C 411.375 435.023438 410.109375 435.480469 408.863281 435.996094 C 407.617188 436.511719 406.398438 437.085938 405.207031 437.722656 C 404.019531 438.359375 402.863281 439.050781 401.742188 439.800781 C 400.621094 440.550781 399.539062 441.351562 398.496094 442.207031 C 397.453125 443.0625 396.457031 443.96875 395.503906 444.921875 C 394.546875 445.875 393.644531 446.875 392.789062 447.917969 C 391.933594 448.957031 391.128906 450.039062 390.382812 451.160156 C 389.632812 452.285156 388.9375 453.4375 388.304688 454.628906 C 387.667969 455.816406 387.09375 457.035156 386.574219 458.28125 C 386.058594 459.527344 385.605469 460.796875 385.214844 462.085938 C 384.824219 463.378906 384.496094 464.683594 384.230469 466.007812 C 383.96875 467.328125 383.773438 468.660156 383.640625 470.003906 C 383.507812 471.347656 383.441406 472.691406 383.441406 474.039062 C 383.441406 475.386719 383.511719 476.734375 383.644531 478.074219 C 383.777344 479.417969 383.976562 480.75 384.238281 482.070312 C 384.503906 483.394531 384.832031 484.699219 385.222656 485.988281 C 385.617188 487.277344 386.070312 488.546875 386.585938 489.792969 C 387.105469 491.039062 387.679688 492.253906 388.316406 493.445312 C 388.953125 494.632812 389.644531 495.789062 390.394531 496.90625 C 391.144531 498.027344 391.945312 499.109375 392.800781 500.152344 C 393.65625 501.195312 394.5625 502.191406 395.515625 503.144531 C 396.46875 504.097656 397.464844 505.003906 398.507812 505.859375 C 399.550781 506.714844 400.632812 507.515625 401.753906 508.265625 C 402.875 509.015625 404.027344 509.707031 405.21875 510.34375 C 406.40625 510.980469 407.625 511.558594 408.867188 512.074219 C 410.113281 512.589844 411.382812 513.042969 412.671875 513.4375 C 413.960938 513.828125 415.269531 514.15625 416.589844 514.421875 C 417.914062 514.6875 419.246094 514.882812 420.585938 515.019531 C 421.925781 515.152344 423.273438 515.21875 424.621094 515.21875 Z M 424.621094 453.449219 C 425.296875 453.449219 425.96875 453.484375 426.640625 453.550781 C 427.308594 453.617188 427.976562 453.714844 428.636719 453.847656 C 429.300781 453.976562 429.953125 454.140625 430.597656 454.335938 C 431.242188 454.53125 431.878906 454.757812 432.5 455.019531 C 433.125 455.277344 433.730469 455.5625 434.328125 455.882812 C 434.921875 456.199219 435.5 456.546875 436.058594 456.921875 C 436.621094 457.296875 437.160156 457.695312 437.683594 458.125 C 438.203125 458.550781 438.703125 459.003906 439.179688 459.480469 C 439.65625 459.957031 440.109375 460.457031 440.539062 460.976562 C 440.964844 461.5 441.367188 462.039062 441.742188 462.601562 C 442.117188 463.160156 442.460938 463.738281 442.78125 464.335938 C 443.097656 464.929688 443.386719 465.539062 443.644531 466.160156 C 443.902344 466.785156 444.128906 467.417969 444.324219 468.0625 C 444.519531 468.707031 444.683594 469.363281 444.816406 470.023438 C 444.945312 470.683594 445.046875 471.351562 445.113281 472.023438 C 445.179688 472.691406 445.210938 473.367188 445.210938 474.039062 C 445.210938 474.714844 445.179688 475.386719 445.113281 476.058594 C 445.046875 476.730469 444.945312 477.394531 444.816406 478.058594 C 444.683594 478.71875 444.519531 479.371094 444.324219 480.015625 C 444.128906 480.664062 443.902344 481.296875 443.644531 481.917969 C 443.386719 482.542969 443.097656 483.152344 442.78125 483.746094 C 442.460938 484.339844 442.117188 484.917969 441.742188 485.480469 C 441.367188 486.039062 440.964844 486.582031 440.539062 487.101562 C 440.109375 487.625 439.65625 488.121094 439.179688 488.597656 C 438.703125 489.078125 438.203125 489.527344 437.683594 489.957031 C 437.160156 490.382812 436.621094 490.785156 436.058594 491.160156 C 435.5 491.535156 434.921875 491.882812 434.328125 492.199219 C 433.730469 492.515625 433.125 492.804688 432.5 493.0625 C 431.878906 493.320312 431.242188 493.546875 430.597656 493.742188 C 429.953125 493.9375 429.300781 494.101562 428.636719 494.234375 C 427.976562 494.367188 427.308594 494.464844 426.640625 494.53125 C 425.96875 494.597656 425.296875 494.628906 424.621094 494.628906 C 423.945312 494.628906 423.273438 494.597656 422.601562 494.53125 C 421.933594 494.464844 421.265625 494.367188 420.605469 494.234375 C 419.941406 494.101562 419.289062 493.9375 418.644531 493.742188 C 418 493.546875 417.363281 493.320312 416.742188 493.0625 C 416.117188 492.804688 415.507812 492.515625 414.914062 492.199219 C 414.320312 491.882812 413.742188 491.535156 413.183594 491.160156 C 412.621094 490.785156 412.082031 490.382812 411.558594 489.957031 C 411.039062 489.527344 410.539062 489.078125 410.0625 488.597656 C 409.585938 488.121094 409.132812 487.625 408.703125 487.101562 C 408.277344 486.582031 407.875 486.039062 407.5 485.480469 C 407.125 484.917969 406.78125 484.339844 406.460938 483.746094 C 406.144531 483.152344 405.855469 482.542969 405.597656 481.917969 C 405.339844 481.296875 405.113281 480.664062 404.917969 480.015625 C 404.722656 479.371094 404.558594 478.71875 404.425781 478.058594 C 404.296875 477.394531 404.195312 476.730469 404.128906 476.058594 C 404.0625 475.386719 404.03125 474.714844 404.03125 474.039062 C 404.03125 473.367188 404.066406 472.695312 404.132812 472.023438 C 404.199219 471.351562 404.296875 470.6875 404.429688 470.023438 C 404.5625 469.363281 404.726562 468.710938 404.921875 468.066406 C 405.121094 467.421875 405.347656 466.789062 405.605469 466.164062 C 405.863281 465.542969 406.152344 464.933594 406.46875 464.339844 C 406.789062 463.746094 407.132812 463.167969 407.507812 462.605469 C 407.882812 462.046875 408.285156 461.503906 408.710938 460.984375 C 409.140625 460.464844 409.59375 459.964844 410.070312 459.488281 C 410.546875 459.011719 411.042969 458.558594 411.566406 458.132812 C 412.085938 457.703125 412.628906 457.300781 413.1875 456.929688 C 413.746094 456.554688 414.324219 456.207031 414.917969 455.890625 C 415.515625 455.570312 416.121094 455.28125 416.746094 455.023438 C 417.367188 454.765625 418 454.539062 418.648438 454.34375 C 419.292969 454.144531 419.945312 453.980469 420.605469 453.851562 C 421.265625 453.71875 421.933594 453.617188 422.605469 453.550781 C 423.273438 453.484375 423.945312 453.449219 424.621094 453.449219 Z M 424.621094 453.449219 " fill-opacity="1" fill-rule="nonzero"/><path fill="#43b02a" d="M 548.160156 556.398438 C 546.8125 556.398438 545.464844 556.464844 544.125 556.597656 C 542.78125 556.730469 541.449219 556.929688 540.125 557.191406 C 538.804688 557.453125 537.496094 557.78125 536.207031 558.171875 C 534.914062 558.566406 533.648438 559.019531 532.402344 559.535156 C 531.15625 560.050781 529.9375 560.625 528.75 561.261719 C 527.558594 561.898438 526.402344 562.589844 525.28125 563.339844 C 524.160156 564.089844 523.078125 564.890625 522.035156 565.746094 C 520.992188 566.601562 519.996094 567.507812 519.042969 568.460938 C 518.089844 569.414062 517.183594 570.414062 516.328125 571.457031 C 515.472656 572.496094 514.667969 573.578125 513.921875 574.703125 C 513.171875 575.824219 512.480469 576.976562 511.84375 578.167969 C 511.207031 579.355469 510.632812 580.574219 510.113281 581.820312 C 509.597656 583.066406 509.144531 584.335938 508.753906 585.625 C 508.363281 586.917969 508.035156 588.222656 507.773438 589.546875 C 507.507812 590.867188 507.3125 592.199219 507.179688 593.542969 C 507.046875 594.886719 506.980469 596.230469 506.980469 597.578125 C 506.980469 598.929688 507.046875 600.273438 507.179688 601.617188 C 507.3125 602.957031 507.507812 604.289062 507.773438 605.613281 C 508.035156 606.9375 508.363281 608.242188 508.753906 609.535156 C 509.144531 610.824219 509.597656 612.09375 510.113281 613.339844 C 510.632812 614.585938 511.207031 615.800781 511.84375 616.992188 C 512.480469 618.179688 513.171875 619.335938 513.921875 620.457031 C 514.667969 621.578125 515.472656 622.660156 516.328125 623.703125 C 517.183594 624.746094 518.089844 625.746094 519.042969 626.699219 C 519.996094 627.652344 520.992188 628.554688 522.035156 629.410156 C 523.078125 630.265625 524.160156 631.070312 525.28125 631.820312 C 526.402344 632.570312 527.558594 633.261719 528.75 633.898438 C 529.9375 634.53125 531.15625 635.109375 532.402344 635.625 C 533.648438 636.140625 534.914062 636.59375 536.207031 636.984375 C 537.496094 637.378906 538.804688 637.703125 540.125 637.96875 C 541.449219 638.230469 542.78125 638.429688 544.125 638.5625 C 545.464844 638.691406 546.8125 638.757812 548.160156 638.757812 C 549.507812 638.757812 550.855469 638.691406 552.195312 638.5625 C 553.539062 638.429688 554.871094 638.230469 556.195312 637.96875 C 557.515625 637.703125 558.824219 637.378906 560.113281 636.984375 C 561.40625 636.59375 562.671875 636.140625 563.917969 635.625 C 565.164062 635.109375 566.382812 634.53125 567.574219 633.898438 C 568.761719 633.261719 569.917969 632.570312 571.039062 631.820312 C 572.160156 631.070312 573.242188 630.265625 574.285156 629.410156 C 575.328125 628.554688 576.324219 627.652344 577.277344 626.699219 C 578.234375 625.746094 579.136719 624.746094 579.992188 623.703125 C 580.847656 622.660156 581.652344 621.578125 582.398438 620.457031 C 583.148438 619.335938 583.84375 618.179688 584.476562 616.992188 C 585.113281 615.800781 585.6875 614.585938 586.207031 613.339844 C 586.722656 612.09375 587.175781 610.824219 587.566406 609.535156 C 587.957031 608.242188 588.285156 606.9375 588.546875 605.613281 C 588.8125 604.289062 589.007812 602.957031 589.140625 601.617188 C 589.273438 600.273438 589.339844 598.929688 589.339844 597.578125 C 589.339844 596.230469 589.269531 594.886719 589.136719 593.542969 C 589.003906 592.203125 588.804688 590.871094 588.542969 589.546875 C 588.277344 588.226562 587.949219 586.921875 587.558594 585.628906 C 587.164062 584.339844 586.710938 583.074219 586.195312 581.828125 C 585.675781 580.582031 585.101562 579.363281 584.464844 578.175781 C 583.828125 576.988281 583.136719 575.832031 582.386719 574.710938 C 581.636719 573.589844 580.835938 572.507812 579.980469 571.46875 C 579.125 570.425781 578.21875 569.425781 577.265625 568.472656 C 576.3125 567.519531 575.316406 566.617188 574.273438 565.761719 C 573.230469 564.90625 572.148438 564.101562 571.027344 563.351562 C 569.90625 562.605469 568.753906 561.910156 567.5625 561.273438 C 566.375 560.640625 565.15625 560.0625 563.914062 559.546875 C 562.667969 559.03125 561.398438 558.574219 560.109375 558.183594 C 558.820312 557.789062 557.511719 557.460938 556.191406 557.199219 C 554.867188 556.933594 553.535156 556.734375 552.195312 556.601562 C 550.855469 556.46875 549.507812 556.402344 548.160156 556.398438 Z M 548.160156 618.167969 C 547.484375 618.167969 546.8125 618.136719 546.140625 618.070312 C 545.472656 618.003906 544.804688 617.90625 544.144531 617.773438 C 543.480469 617.640625 542.828125 617.480469 542.183594 617.28125 C 541.539062 617.085938 540.902344 616.859375 540.28125 616.601562 C 539.65625 616.34375 539.050781 616.054688 538.453125 615.738281 C 537.859375 615.421875 537.28125 615.074219 536.722656 614.699219 C 536.160156 614.324219 535.621094 613.921875 535.097656 613.496094 C 534.578125 613.066406 534.078125 612.617188 533.601562 612.140625 C 533.125 611.660156 532.671875 611.164062 532.242188 610.640625 C 531.816406 610.121094 531.414062 609.578125 531.039062 609.019531 C 530.664062 608.457031 530.320312 607.878906 530 607.285156 C 529.683594 606.691406 529.394531 606.082031 529.136719 605.457031 C 528.878906 604.835938 528.652344 604.203125 528.457031 603.554688 C 528.261719 602.910156 528.097656 602.257812 527.964844 601.597656 C 527.835938 600.933594 527.734375 600.269531 527.667969 599.597656 C 527.601562 598.925781 527.570312 598.253906 527.570312 597.578125 C 527.570312 596.90625 527.601562 596.234375 527.667969 595.5625 C 527.734375 594.890625 527.835938 594.222656 527.964844 593.5625 C 528.097656 592.902344 528.261719 592.246094 528.457031 591.601562 C 528.652344 590.957031 528.878906 590.324219 529.136719 589.699219 C 529.394531 589.078125 529.683594 588.46875 530 587.875 C 530.320312 587.277344 530.664062 586.699219 531.039062 586.140625 C 531.414062 585.578125 531.816406 585.039062 532.242188 584.515625 C 532.671875 583.996094 533.125 583.496094 533.601562 583.019531 C 534.078125 582.542969 534.578125 582.089844 535.097656 581.664062 C 535.621094 581.234375 536.160156 580.835938 536.722656 580.460938 C 537.28125 580.085938 537.859375 579.738281 538.453125 579.421875 C 539.050781 579.101562 539.65625 578.816406 540.28125 578.558594 C 540.902344 578.300781 541.539062 578.070312 542.183594 577.875 C 542.828125 577.679688 543.480469 577.515625 544.144531 577.386719 C 544.804688 577.253906 545.472656 577.15625 546.140625 577.089844 C 546.8125 577.023438 547.484375 576.988281 548.160156 576.988281 C 548.835938 576.988281 549.507812 577.023438 550.179688 577.089844 C 550.847656 577.15625 551.515625 577.253906 552.175781 577.386719 C 552.839844 577.515625 553.492188 577.679688 554.136719 577.875 C 554.78125 578.070312 555.417969 578.300781 556.039062 578.558594 C 556.664062 578.816406 557.273438 579.101562 557.867188 579.421875 C 558.460938 579.738281 559.039062 580.085938 559.597656 580.460938 C 560.160156 580.835938 560.699219 581.234375 561.222656 581.664062 C 561.742188 582.089844 562.242188 582.542969 562.71875 583.019531 C 563.195312 583.496094 563.648438 583.996094 564.078125 584.515625 C 564.503906 585.039062 564.90625 585.578125 565.28125 586.140625 C 565.65625 586.699219 566 587.277344 566.320312 587.875 C 566.636719 588.46875 566.925781 589.078125 567.183594 589.699219 C 567.441406 590.324219 567.667969 590.957031 567.863281 591.601562 C 568.058594 592.246094 568.222656 592.902344 568.355469 593.5625 C 568.484375 594.222656 568.585938 594.890625 568.652344 595.5625 C 568.71875 596.234375 568.75 596.90625 568.75 597.578125 C 568.75 598.253906 568.714844 598.925781 568.648438 599.597656 C 568.582031 600.269531 568.484375 600.933594 568.351562 601.59375 C 568.21875 602.257812 568.054688 602.910156 567.859375 603.554688 C 567.660156 604.199219 567.433594 604.832031 567.175781 605.457031 C 566.917969 606.078125 566.628906 606.6875 566.3125 607.28125 C 565.992188 607.875 565.648438 608.453125 565.273438 609.011719 C 564.898438 609.574219 564.496094 610.113281 564.070312 610.636719 C 563.640625 611.15625 563.1875 611.65625 562.710938 612.132812 C 562.234375 612.609375 561.738281 613.0625 561.214844 613.488281 C 560.695312 613.917969 560.152344 614.316406 559.59375 614.691406 C 559.035156 615.066406 558.457031 615.414062 557.863281 615.730469 C 557.265625 616.050781 556.660156 616.335938 556.035156 616.59375 C 555.414062 616.855469 554.78125 617.082031 554.132812 617.277344 C 553.488281 617.472656 552.835938 617.636719 552.175781 617.769531 C 551.515625 617.902344 550.847656 618 550.179688 618.066406 C 549.507812 618.136719 548.835938 618.167969 548.160156 618.167969 Z M 548.160156 618.167969 " fill-opacity="1" fill-rule="nonzero"/><path fill="#43b02a" d="M 392.519531 597.578125 C 392.519531 599.6875 392.722656 601.777344 393.132812 603.847656 C 393.542969 605.914062 394.148438 607.925781 394.953125 609.875 C 395.757812 611.824219 396.746094 613.675781 397.914062 615.429688 C 399.082031 617.1875 400.410156 618.8125 401.898438 620.304688 C 413.996094 632.660156 435.40625 632.710938 447.300781 620.171875 L 569.996094 495.886719 C 581.976562 484.390625 581.855469 463.832031 570.007812 452.214844 C 558.222656 440.660156 537.914062 440.582031 526.375 452.164062 L 402.03125 574.910156 C 400.523438 576.386719 399.179688 578.003906 397.996094 579.75 C 396.8125 581.496094 395.8125 583.34375 394.996094 585.289062 C 394.179688 587.234375 393.566406 589.242188 393.148438 591.3125 C 392.730469 593.378906 392.519531 595.46875 392.519531 597.578125 Z M 416.5 589.558594 L 540.890625 466.761719 C 541.367188 466.261719 541.886719 465.8125 542.449219 465.414062 C 543.011719 465.019531 543.609375 464.683594 544.242188 464.40625 C 544.875 464.128906 545.527344 463.917969 546.203125 463.773438 C 546.875 463.628906 547.558594 463.550781 548.246094 463.542969 C 548.9375 463.535156 549.621094 463.59375 550.296875 463.722656 C 550.976562 463.851562 551.632812 464.046875 552.269531 464.308594 C 552.910156 464.570312 553.515625 464.894531 554.089844 465.277344 C 554.664062 465.660156 555.191406 466.09375 555.679688 466.585938 C 556.164062 467.074219 556.597656 467.609375 556.972656 468.183594 C 557.351562 468.761719 557.671875 469.367188 557.925781 470.007812 C 558.183594 470.648438 558.375 471.308594 558.496094 471.988281 C 558.621094 472.664062 558.675781 473.347656 558.664062 474.039062 C 558.648438 474.726562 558.566406 475.410156 558.417969 476.082031 C 558.265625 476.753906 558.050781 477.40625 557.769531 478.035156 C 557.488281 478.664062 557.148438 479.261719 556.746094 479.820312 C 556.347656 480.382812 555.894531 480.898438 555.386719 481.367188 L 432.652344 605.699219 C 432.125 606.230469 431.546875 606.703125 430.925781 607.121094 C 430.300781 607.535156 429.644531 607.886719 428.949219 608.175781 C 428.257812 608.460938 427.542969 608.679688 426.808594 608.824219 C 426.074219 608.972656 425.332031 609.046875 424.582031 609.046875 C 423.832031 609.046875 423.089844 608.972656 422.351562 608.828125 C 421.617188 608.683594 420.902344 608.464844 420.210938 608.179688 C 419.519531 607.890625 418.859375 607.542969 418.234375 607.125 C 417.613281 606.707031 417.035156 606.234375 416.503906 605.707031 C 415.976562 605.175781 415.5 604.597656 415.085938 603.976562 C 414.667969 603.351562 414.316406 602.695312 414.027344 602.003906 C 413.742188 601.308594 413.523438 600.597656 413.378906 599.859375 C 413.230469 599.125 413.15625 598.382812 413.15625 597.632812 C 413.15625 596.882812 413.230469 596.140625 413.375 595.40625 C 413.523438 594.667969 413.738281 593.957031 414.023438 593.261719 C 414.3125 592.570312 414.664062 591.910156 415.078125 591.289062 C 415.496094 590.664062 415.96875 590.085938 416.5 589.558594 Z M 416.5 589.558594 " fill-opacity="1" fill-rule="nonzero"/></svg>